<?xml version="1.0" encoding="UTF-8"?>
<svg xmlns="http://www.w3.org/2000/svg" width="191" height="125">
   <defs>
      <style type="text/css">
    @namespace "http://www.w3.org/2000/svg";
    .line                 {fill: none; stroke: #211E1E; stroke-width: 1;}
    .bold-line            {stroke: #0B0A0A; shape-rendering: crispEdges; stroke-width: 2;}
    .thin-line            {stroke: #100F0F; shape-rendering: crispEdges}
    .filled               {fill: #211E1E; stroke: none;}
    text.terminal         {font-family: Verdana, Sans-serif;
                            font-size: 12px;
                            fill: #0B0A0A;
                            font-weight: bold;
                          }
    text.nonterminal      {font-family: Verdana, Sans-serif;
                            font-size: 12px;
                            fill: #0D0C0C;
                            font-weight: normal;
                          }
    text.regexp           {font-family: Verdana, Sans-serif;
                            font-size: 12px;
                            fill: #100F0F;
                            font-weight: normal;
                          }
    rect, circle, polygon {fill: #211E1E; stroke: #211E1E;}
    rect.terminal         {fill: #D1CDCC; stroke: #211E1E; stroke-width: 1;}
    rect.nonterminal      {fill: #E6E4E3; stroke: #211E1E; stroke-width: 1;}
    rect.text             {fill: none; stroke: none;}
    polygon.regexp        {fill: #F1EFEF; stroke: #211E1E; stroke-width: 1;}
  </style>
   </defs>
   <polygon points="9 105 1 101 1 109"/>
   <polygon points="17 105 9 101 9 109"/>
   <a xmlns:xlink="http://www.w3.org/1999/xlink"
      xlink:href="#comparison"
      xlink:title="comparison">
      <rect x="51" y="91" width="92" height="32"/>
      <rect x="49" y="89" width="92" height="32" class="nonterminal"/>
      <text class="nonterminal" x="59" y="109">comparison</text>
   </a>
   <rect x="51" y="47" width="34" height="32" rx="10"/>
   <rect x="49"
         y="45"
         width="34"
         height="32"
         class="terminal"
         rx="10"/>
   <text class="terminal" x="59" y="65">!=</text>
   <rect x="51" y="3" width="40" height="32" rx="10"/>
   <rect x="49"
         y="1"
         width="40"
         height="32"
         class="terminal"
         rx="10"/>
   <text class="terminal" x="59" y="21">==</text>
   <path class="line"
         d="m17 105 h2 m20 0 h10 m92 0 h10 m-132 0 l20 0 m-1 0 q-9 0 -9 -10 l0 -24 q0 -10 10 -10 m112 44 l20 0 m-20 0 q10 0 10 -10 l0 -24 q0 -10 -10 -10 m-112 0 h10 m34 0 h10 m0 0 h58 m-122 10 l0 -44 q0 -10 10 -10 m122 54 l0 -44 q0 -10 -10 -10 m-112 0 h10 m40 0 h10 m0 0 h52 m23 88 h-3"/>
   <polygon points="181 105 189 101 189 109"/>
   <polygon points="181 105 173 101 173 109"/>
</svg>
