<?xml version="1.0" encoding="UTF-8"?>
<svg xmlns="http://www.w3.org/2000/svg" width="143" height="213">
   <defs>
      <style type="text/css">
    @namespace "http://www.w3.org/2000/svg";
    .line                 {fill: none; stroke: #211E1E; stroke-width: 1;}
    .bold-line            {stroke: #0B0A0A; shape-rendering: crispEdges; stroke-width: 2;}
    .thin-line            {stroke: #100F0F; shape-rendering: crispEdges}
    .filled               {fill: #211E1E; stroke: none;}
    text.terminal         {font-family: Verdana, Sans-serif;
                            font-size: 12px;
                            fill: #0B0A0A;
                            font-weight: bold;
                          }
    text.nonterminal      {font-family: Verdana, Sans-serif;
                            font-size: 12px;
                            fill: #0D0C0C;
                            font-weight: normal;
                          }
    text.regexp           {font-family: Verdana, Sans-serif;
                            font-size: 12px;
                            fill: #100F0F;
                            font-weight: normal;
                          }
    rect, circle, polygon {fill: #211E1E; stroke: #211E1E;}
    rect.terminal         {fill: #D1CDCC; stroke: #211E1E; stroke-width: 1;}
    rect.nonterminal      {fill: #E6E4E3; stroke: #211E1E; stroke-width: 1;}
    rect.text             {fill: none; stroke: none;}
    polygon.regexp        {fill: #F1EFEF; stroke: #211E1E; stroke-width: 1;}
  </style>
   </defs>
   <polygon points="9 17 1 13 1 21"/>
   <polygon points="17 17 9 13 9 21"/>
   <rect x="51" y="3" width="38" height="32" rx="10"/>
   <rect x="49"
         y="1"
         width="38"
         height="32"
         class="terminal"
         rx="10"/>
   <text class="terminal" x="59" y="21">int</text>
   <rect x="51" y="47" width="34" height="32" rx="10"/>
   <rect x="49"
         y="45"
         width="34"
         height="32"
         class="terminal"
         rx="10"/>
   <text class="terminal" x="59" y="65">flt</text>
   <rect x="51" y="91" width="42" height="32" rx="10"/>
   <rect x="49"
         y="89"
         width="42"
         height="32"
         class="terminal"
         rx="10"/>
   <text class="terminal" x="59" y="109">chr</text>
   <rect x="51" y="135" width="38" height="32" rx="10"/>
   <rect x="49"
         y="133"
         width="38"
         height="32"
         class="terminal"
         rx="10"/>
   <text class="terminal" x="59" y="153">str</text>
   <rect x="51" y="179" width="44" height="32" rx="10"/>
   <rect x="49"
         y="177"
         width="44"
         height="32"
         class="terminal"
         rx="10"/>
   <text class="terminal" x="59" y="197">boo</text>
   <path class="line"
         d="m17 17 h2 m20 0 h10 m38 0 h10 m0 0 h6 m-84 0 h20 m64 0 h20 m-104 0 q10 0 10 10 m84 0 q0 -10 10 -10 m-94 10 v24 m84 0 v-24 m-84 24 q0 10 10 10 m64 0 q10 0 10 -10 m-74 10 h10 m34 0 h10 m0 0 h10 m-74 -10 v20 m84 0 v-20 m-84 20 v24 m84 0 v-24 m-84 24 q0 10 10 10 m64 0 q10 0 10 -10 m-74 10 h10 m42 0 h10 m0 0 h2 m-74 -10 v20 m84 0 v-20 m-84 20 v24 m84 0 v-24 m-84 24 q0 10 10 10 m64 0 q10 0 10 -10 m-74 10 h10 m38 0 h10 m0 0 h6 m-74 -10 v20 m84 0 v-20 m-84 20 v24 m84 0 v-24 m-84 24 q0 10 10 10 m64 0 q10 0 10 -10 m-74 10 h10 m44 0 h10 m23 -176 h-3"/>
   <polygon points="133 17 141 13 141 21"/>
   <polygon points="133 17 125 13 125 21"/>
</svg>
