<?xml version="1.0" encoding="UTF-8"?>
<svg xmlns="http://www.w3.org/2000/svg" width="447" height="37">
   <defs>
      <style type="text/css">
    @namespace "http://www.w3.org/2000/svg";
    .line                 {fill: none; stroke: #211E1E; stroke-width: 1;}
    .bold-line            {stroke: #0B0A0A; shape-rendering: crispEdges; stroke-width: 2;}
    .thin-line            {stroke: #100F0F; shape-rendering: crispEdges}
    .filled               {fill: #211E1E; stroke: none;}
    text.terminal         {font-family: Verdana, Sans-serif;
                            font-size: 12px;
                            fill: #0B0A0A;
                            font-weight: bold;
                          }
    text.nonterminal      {font-family: Verdana, Sans-serif;
                            font-size: 12px;
                            fill: #0D0C0C;
                            font-weight: normal;
                          }
    text.regexp           {font-family: Verdana, Sans-serif;
                            font-size: 12px;
                            fill: #100F0F;
                            font-weight: normal;
                          }
    rect, circle, polygon {fill: #211E1E; stroke: #211E1E;}
    rect.terminal         {fill: #D1CDCC; stroke: #211E1E; stroke-width: 1;}
    rect.nonterminal      {fill: #E6E4E3; stroke: #211E1E; stroke-width: 1;}
    rect.text             {fill: none; stroke: none;}
    polygon.regexp        {fill: #F1EFEF; stroke: #211E1E; stroke-width: 1;}
  </style>
   </defs>
   <polygon points="9 17 1 13 1 21"/>
   <polygon points="17 17 9 13 9 21"/>
   <rect x="31" y="3" width="42" height="32" rx="10"/>
   <rect x="29"
         y="1"
         width="42"
         height="32"
         class="terminal"
         rx="10"/>
   <text class="terminal" x="39" y="21">var</text>
   <a xmlns:xlink="http://www.w3.org/1999/xlink"
      xlink:href="#IDENTIFIER"
      xlink:title="IDENTIFIER">
      <rect x="93" y="3" width="92" height="32"/>
      <rect x="91" y="1" width="92" height="32" class="nonterminal"/>
      <text class="nonterminal" x="101" y="21">IDENTIFIER</text>
   </a>
   <a xmlns:xlink="http://www.w3.org/1999/xlink"
      xlink:href="#type"
      xlink:title="type">
      <rect x="205" y="3" width="48" height="32"/>
      <rect x="203" y="1" width="48" height="32" class="nonterminal"/>
      <text class="nonterminal" x="213" y="21">type</text>
   </a>
   <rect x="273" y="3" width="34" height="32" rx="10"/>
   <rect x="271"
         y="1"
         width="34"
         height="32"
         class="terminal"
         rx="10"/>
   <text class="terminal" x="281" y="21">:=</text>
   <a xmlns:xlink="http://www.w3.org/1999/xlink"
      xlink:href="#expr"
      xlink:title="expr">
      <rect x="327" y="3" width="48" height="32"/>
      <rect x="325" y="1" width="48" height="32" class="nonterminal"/>
      <text class="nonterminal" x="335" y="21">expr</text>
   </a>
   <rect x="395" y="3" width="24" height="32" rx="10"/>
   <rect x="393"
         y="1"
         width="24"
         height="32"
         class="terminal"
         rx="10"/>
   <text class="terminal" x="403" y="21">;</text>
   <path class="line"
         d="m17 17 h2 m0 0 h10 m42 0 h10 m0 0 h10 m92 0 h10 m0 0 h10 m48 0 h10 m0 0 h10 m34 0 h10 m0 0 h10 m48 0 h10 m0 0 h10 m24 0 h10 m3 0 h-3"/>
   <polygon points="437 17 445 13 445 21"/>
   <polygon points="437 17 429 13 429 21"/>
</svg>
