<?xml version="1.0" encoding="UTF-8"?>
<svg xmlns="http://www.w3.org/2000/svg" width="777" height="333">
   <defs>
      <style type="text/css">
    @namespace "http://www.w3.org/2000/svg";
    .line                 {fill: none; stroke: #211E1E; stroke-width: 1;}
    .bold-line            {stroke: #0B0A0A; shape-rendering: crispEdges; stroke-width: 2;}
    .thin-line            {stroke: #100F0F; shape-rendering: crispEdges}
    .filled               {fill: #211E1E; stroke: none;}
    text.terminal         {font-family: Verdana, Sans-serif;
                            font-size: 12px;
                            fill: #0B0A0A;
                            font-weight: bold;
                          }
    text.nonterminal      {font-family: Verdana, Sans-serif;
                            font-size: 12px;
                            fill: #0D0C0C;
                            font-weight: normal;
                          }
    text.regexp           {font-family: Verdana, Sans-serif;
                            font-size: 12px;
                            fill: #100F0F;
                            font-weight: normal;
                          }
    rect, circle, polygon {fill: #211E1E; stroke: #211E1E;}
    rect.terminal         {fill: #D1CDCC; stroke: #211E1E; stroke-width: 1;}
    rect.nonterminal      {fill: #E6E4E3; stroke: #211E1E; stroke-width: 1;}
    rect.text             {fill: none; stroke: none;}
    polygon.regexp        {fill: #F1EFEF; stroke: #211E1E; stroke-width: 1;}
  </style>
   </defs>
   <polygon points="9 61 1 57 1 65"/>
   <polygon points="17 61 9 57 9 65"/>
   <rect x="71" y="47" width="28" height="32" rx="10"/>
   <rect x="69"
         y="45"
         width="28"
         height="32"
         class="terminal"
         rx="10"/>
   <text class="terminal" x="79" y="65">if</text>
   <rect x="119" y="47" width="26" height="32" rx="10"/>
   <rect x="117"
         y="45"
         width="26"
         height="32"
         class="terminal"
         rx="10"/>
   <text class="terminal" x="127" y="65">(</text>
   <a xmlns:xlink="http://www.w3.org/1999/xlink"
      xlink:href="#expr"
      xlink:title="expr">
      <rect x="165" y="47" width="48" height="32"/>
      <rect x="163" y="45" width="48" height="32" class="nonterminal"/>
      <text class="nonterminal" x="173" y="65">expr</text>
   </a>
   <rect x="233" y="47" width="26" height="32" rx="10"/>
   <rect x="231"
         y="45"
         width="26"
         height="32"
         class="terminal"
         rx="10"/>
   <text class="terminal" x="241" y="65">)</text>
   <rect x="279" y="47" width="28" height="32" rx="10"/>
   <rect x="277"
         y="45"
         width="28"
         height="32"
         class="terminal"
         rx="10"/>
   <text class="terminal" x="287" y="65">{</text>
   <a xmlns:xlink="http://www.w3.org/1999/xlink"
      xlink:href="#stmts"
      xlink:title="stmts">
      <rect x="327" y="47" width="56" height="32"/>
      <rect x="325" y="45" width="56" height="32" class="nonterminal"/>
      <text class="nonterminal" x="335" y="65">stmts</text>
   </a>
   <rect x="403" y="47" width="28" height="32" rx="10"/>
   <rect x="401"
         y="45"
         width="28"
         height="32"
         class="terminal"
         rx="10"/>
   <text class="terminal" x="411" y="65">}</text>
   <rect x="71" y="3" width="46" height="32" rx="10"/>
   <rect x="69"
         y="1"
         width="46"
         height="32"
         class="terminal"
         rx="10"/>
   <text class="terminal" x="79" y="21">else</text>
   <rect x="491" y="79" width="46" height="32" rx="10"/>
   <rect x="489"
         y="77"
         width="46"
         height="32"
         class="terminal"
         rx="10"/>
   <text class="terminal" x="499" y="97">else</text>
   <rect x="557" y="79" width="28" height="32" rx="10"/>
   <rect x="555"
         y="77"
         width="28"
         height="32"
         class="terminal"
         rx="10"/>
   <text class="terminal" x="565" y="97">{</text>
   <a xmlns:xlink="http://www.w3.org/1999/xlink"
      xlink:href="#stmts"
      xlink:title="stmts">
      <rect x="605" y="79" width="56" height="32"/>
      <rect x="603" y="77" width="56" height="32" class="nonterminal"/>
      <text class="nonterminal" x="613" y="97">stmts</text>
   </a>
   <rect x="681" y="79" width="28" height="32" rx="10"/>
   <rect x="679"
         y="77"
         width="28"
         height="32"
         class="terminal"
         rx="10"/>
   <text class="terminal" x="689" y="97">}</text>
   <a xmlns:xlink="http://www.w3.org/1999/xlink"
      xlink:href="#for_stmt"
      xlink:title="for_stmt">
      <rect x="51" y="123" width="74" height="32"/>
      <rect x="49" y="121" width="74" height="32" class="nonterminal"/>
      <text class="nonterminal" x="59" y="141">for_stmt</text>
   </a>
   <a xmlns:xlink="http://www.w3.org/1999/xlink"
      xlink:href="#puts_stmt"
      xlink:title="puts_stmt">
      <rect x="51" y="167" width="84" height="32"/>
      <rect x="49" y="165" width="84" height="32" class="nonterminal"/>
      <text class="nonterminal" x="59" y="185">puts_stmt</text>
   </a>
   <a xmlns:xlink="http://www.w3.org/1999/xlink"
      xlink:href="#var_stmt"
      xlink:title="var_stmt">
      <rect x="51" y="211" width="76" height="32"/>
      <rect x="49" y="209" width="76" height="32" class="nonterminal"/>
      <text class="nonterminal" x="59" y="229">var_stmt</text>
   </a>
   <a xmlns:xlink="http://www.w3.org/1999/xlink"
      xlink:href="#const_stmt"
      xlink:title="const_stmt">
      <rect x="51" y="255" width="90" height="32"/>
      <rect x="49" y="253" width="90" height="32" class="nonterminal"/>
      <text class="nonterminal" x="59" y="273">const_stmt</text>
   </a>
   <a xmlns:xlink="http://www.w3.org/1999/xlink"
      xlink:href="#assign_stmt"
      xlink:title="assign_stmt">
      <rect x="51" y="299" width="98" height="32"/>
      <rect x="49" y="297" width="98" height="32" class="nonterminal"/>
      <text class="nonterminal" x="59" y="317">assign_stmt</text>
   </a>
   <path class="line"
         d="m17 61 h2 m40 0 h10 m28 0 h10 m0 0 h10 m26 0 h10 m0 0 h10 m48 0 h10 m0 0 h10 m26 0 h10 m0 0 h10 m28 0 h10 m0 0 h10 m56 0 h10 m0 0 h10 m28 0 h10 m-400 0 l20 0 m-1 0 q-9 0 -9 -10 l0 -24 q0 -10 10 -10 m380 44 l20 0 m-20 0 q10 0 10 -10 l0 -24 q0 -10 -10 -10 m-380 0 h10 m46 0 h10 m0 0 h314 m40 44 h10 m0 0 h228 m-258 0 h20 m238 0 h20 m-278 0 q10 0 10 10 m258 0 q0 -10 10 -10 m-268 10 v12 m258 0 v-12 m-258 12 q0 10 10 10 m238 0 q10 0 10 -10 m-248 10 h10 m46 0 h10 m0 0 h10 m28 0 h10 m0 0 h10 m56 0 h10 m0 0 h10 m28 0 h10 m-698 -32 h20 m698 0 h20 m-738 0 q10 0 10 10 m718 0 q0 -10 10 -10 m-728 10 v56 m718 0 v-56 m-718 56 q0 10 10 10 m698 0 q10 0 10 -10 m-708 10 h10 m74 0 h10 m0 0 h604 m-708 -10 v20 m718 0 v-20 m-718 20 v24 m718 0 v-24 m-718 24 q0 10 10 10 m698 0 q10 0 10 -10 m-708 10 h10 m84 0 h10 m0 0 h594 m-708 -10 v20 m718 0 v-20 m-718 20 v24 m718 0 v-24 m-718 24 q0 10 10 10 m698 0 q10 0 10 -10 m-708 10 h10 m76 0 h10 m0 0 h602 m-708 -10 v20 m718 0 v-20 m-718 20 v24 m718 0 v-24 m-718 24 q0 10 10 10 m698 0 q10 0 10 -10 m-708 10 h10 m90 0 h10 m0 0 h588 m-708 -10 v20 m718 0 v-20 m-718 20 v24 m718 0 v-24 m-718 24 q0 10 10 10 m698 0 q10 0 10 -10 m-708 10 h10 m98 0 h10 m0 0 h580 m23 -252 h-3"/>
   <polygon points="767 61 775 57 775 65"/>
   <polygon points="767 61 759 57 759 65"/>
</svg>
