<?xml version="1.0" encoding="UTF-8"?>
<svg xmlns="http://www.w3.org/2000/svg" width="217" height="159">
   <defs>
      <style type="text/css">
    @namespace "http://www.w3.org/2000/svg";
    .line                 {fill: none; stroke: #211E1E; stroke-width: 1;}
    .bold-line            {stroke: #0B0A0A; shape-rendering: crispEdges; stroke-width: 2;}
    .thin-line            {stroke: #100F0F; shape-rendering: crispEdges}
    .filled               {fill: #211E1E; stroke: none;}
    text.terminal         {font-family: Verdana, Sans-serif;
                            font-size: 12px;
                            fill: #0B0A0A;
                            font-weight: bold;
                          }
    text.nonterminal      {font-family: Verdana, Sans-serif;
                            font-size: 12px;
                            fill: #0D0C0C;
                            font-weight: normal;
                          }
    text.regexp           {font-family: Verdana, Sans-serif;
                            font-size: 12px;
                            fill: #100F0F;
                            font-weight: normal;
                          }
    rect, circle, polygon {fill: #211E1E; stroke: #211E1E;}
    rect.terminal         {fill: #D1CDCC; stroke: #211E1E; stroke-width: 1;}
    rect.nonterminal      {fill: #E6E4E3; stroke: #211E1E; stroke-width: 1;}
    rect.text             {fill: none; stroke: none;}
    polygon.regexp        {fill: #F1EFEF; stroke: #211E1E; stroke-width: 1;}
  </style>
   </defs>
   <polygon points="9 139 1 135 1 143"/>
   <polygon points="17 139 9 135 9 143"/>
   <rect x="51" y="91" width="24" height="32" rx="10"/>
   <rect x="49"
         y="89"
         width="24"
         height="32"
         class="terminal"
         rx="10"/>
   <text class="terminal" x="59" y="109">!</text>
   <rect x="51" y="47" width="30" height="32" rx="10"/>
   <rect x="49"
         y="45"
         width="30"
         height="32"
         class="terminal"
         rx="10"/>
   <text class="terminal" x="59" y="65">+</text>
   <rect x="51" y="3" width="26" height="32" rx="10"/>
   <rect x="49"
         y="1"
         width="26"
         height="32"
         class="terminal"
         rx="10"/>
   <text class="terminal" x="59" y="21">-</text>
   <a xmlns:xlink="http://www.w3.org/1999/xlink"
      xlink:href="#primary"
      xlink:title="primary">
      <rect x="121" y="125" width="68" height="32"/>
      <rect x="119" y="123" width="68" height="32" class="nonterminal"/>
      <text class="nonterminal" x="129" y="143">primary</text>
   </a>
   <path class="line"
         d="m17 139 h2 m20 0 h10 m0 0 h40 m-70 0 l20 0 m-1 0 q-9 0 -9 -10 l0 -14 q0 -10 10 -10 m50 34 l20 0 m-20 0 q10 0 10 -10 l0 -14 q0 -10 -10 -10 m-50 0 h10 m24 0 h10 m0 0 h6 m-60 10 l0 -44 q0 -10 10 -10 m60 54 l0 -44 q0 -10 -10 -10 m-50 0 h10 m30 0 h10 m-60 10 l0 -44 q0 -10 10 -10 m60 54 l0 -44 q0 -10 -10 -10 m-50 0 h10 m26 0 h10 m0 0 h4 m20 122 h10 m68 0 h10 m3 0 h-3"/>
   <polygon points="207 139 215 135 215 143"/>
   <polygon points="207 139 199 135 199 143"/>
</svg>
